solid OpenSCAD_Model
  facet normal 0 0 -1
    outer loop
      vertex -106.605 -133.35 0
      vertex -107.275 -130.85 0
      vertex -104.775 -135.18 0
    endloop
  endfacet
  facet normal 0 0 -1
    outer loop
      vertex -107.275 -130.85 0
      vertex 102.275 -135.85 0
      vertex -102.275 -135.85 0
    endloop
  endfacet
  facet normal 0 0 -1
    outer loop
      vertex -107.275 -130.85 0
      vertex -102.275 -135.85 0
      vertex -104.775 -135.18 0
    endloop
  endfacet
  facet normal 0 0 -1
    outer loop
      vertex -107.275 -130.85 0
      vertex 107.275 -130.85 0
      vertex 102.275 -135.85 0
    endloop
  endfacet
  facet normal 0 0 -1
    outer loop
      vertex 107.275 -130.85 0
      vertex 106.605 -133.35 0
      vertex 104.775 -135.18 0
    endloop
  endfacet
  facet normal 0 0 -1
    outer loop
      vertex 102.275 -135.85 0
      vertex 107.275 -130.85 0
      vertex 104.775 -135.18 0
    endloop
  endfacet
  facet normal 0 0 -1
    outer loop
      vertex -107.275 -130.85 0
      vertex -107.275 130.85 0
      vertex 107.275 -130.85 0
    endloop
  endfacet
  facet normal 0 0 -1
    outer loop
      vertex 107.275 -130.85 0
      vertex -107.275 130.85 0
      vertex 107.275 130.85 0
    endloop
  endfacet
  facet normal 0 0 -1
    outer loop
      vertex 107.275 130.85 0
      vertex 104.775 135.18 0
      vertex 106.605 133.35 0
    endloop
  endfacet
  facet normal 0 0 -1
    outer loop
      vertex 107.275 130.85 0
      vertex 102.275 135.85 0
      vertex 104.775 135.18 0
    endloop
  endfacet
  facet normal 0 0 -1
    outer loop
      vertex 107.275 130.85 0
      vertex -107.275 130.85 0
      vertex 102.275 135.85 0
    endloop
  endfacet
  facet normal -0 0 -1
    outer loop
      vertex 102.275 135.85 0
      vertex -107.275 130.85 0
      vertex -102.275 135.85 0
    endloop
  endfacet
  facet normal 0 0 -1
    outer loop
      vertex -102.275 135.85 0
      vertex -107.275 130.85 0
      vertex -104.775 135.18 0
    endloop
  endfacet
  facet normal 0 0 -1
    outer loop
      vertex -104.775 135.18 0
      vertex -107.275 130.85 0
      vertex -106.605 133.35 0
    endloop
  endfacet
  facet normal 0 0 1
    outer loop
      vertex -104.775 -135.18 2.9
      vertex -107.275 -130.85 2.9
      vertex -106.605 -133.35 2.9
    endloop
  endfacet
  facet normal 0 -0 1
    outer loop
      vertex -102.275 -135.85 2.9
      vertex 102.275 -135.85 2.9
      vertex -107.275 -130.85 2.9
    endloop
  endfacet
  facet normal -0 -0 1
    outer loop
      vertex -104.775 -135.18 2.9
      vertex -102.275 -135.85 2.9
      vertex -107.275 -130.85 2.9
    endloop
  endfacet
  facet normal 0 -0 1
    outer loop
      vertex 102.275 -135.85 2.9
      vertex 107.275 -130.85 2.9
      vertex -107.275 -130.85 2.9
    endloop
  endfacet
  facet normal 0 0 1
    outer loop
      vertex 104.775 -135.18 2.9
      vertex 106.605 -133.35 2.9
      vertex 107.275 -130.85 2.9
    endloop
  endfacet
  facet normal 0 -0 1
    outer loop
      vertex 104.775 -135.18 2.9
      vertex 107.275 -130.85 2.9
      vertex 102.275 -135.85 2.9
    endloop
  endfacet
  facet normal 0 0 1
    outer loop
      vertex 107.275 -130.85 2.9
      vertex -107.275 130.85 2.9
      vertex -107.275 -130.85 2.9
    endloop
  endfacet
  facet normal 0 0 1
    outer loop
      vertex 107.275 130.85 2.9
      vertex -107.275 130.85 2.9
      vertex 107.275 -130.85 2.9
    endloop
  endfacet
  facet normal 0 0 1
    outer loop
      vertex 106.605 133.35 2.9
      vertex 104.775 135.18 2.9
      vertex 107.275 130.85 2.9
    endloop
  endfacet
  facet normal 0 0 1
    outer loop
      vertex 104.775 135.18 2.9
      vertex 102.275 135.85 2.9
      vertex 107.275 130.85 2.9
    endloop
  endfacet
  facet normal 0 0 1
    outer loop
      vertex 102.275 135.85 2.9
      vertex -107.275 130.85 2.9
      vertex 107.275 130.85 2.9
    endloop
  endfacet
  facet normal -0 0 1
    outer loop
      vertex -102.275 135.85 2.9
      vertex -107.275 130.85 2.9
      vertex 102.275 135.85 2.9
    endloop
  endfacet
  facet normal -0 0 1
    outer loop
      vertex -104.775 135.18 2.9
      vertex -107.275 130.85 2.9
      vertex -102.275 135.85 2.9
    endloop
  endfacet
  facet normal -0 0 1
    outer loop
      vertex -106.605 133.35 2.9
      vertex -107.275 130.85 2.9
      vertex -104.775 135.18 2.9
    endloop
  endfacet
  facet normal -0.965926 -0.25882 0
    outer loop
      vertex -106.605 -133.35 0
      vertex -107.275 -130.85 2.9
      vertex -107.275 -130.85 0
    endloop
  endfacet
  facet normal -0.965926 -0.25882 0
    outer loop
      vertex -106.605 -133.35 0
      vertex -106.605 -133.35 2.9
      vertex -107.275 -130.85 2.9
    endloop
  endfacet
  facet normal -0.707107 -0.707107 0
    outer loop
      vertex -104.775 -135.18 0
      vertex -106.605 -133.35 2.9
      vertex -106.605 -133.35 0
    endloop
  endfacet
  facet normal -0.707107 -0.707107 0
    outer loop
      vertex -104.775 -135.18 0
      vertex -104.775 -135.18 2.9
      vertex -106.605 -133.35 2.9
    endloop
  endfacet
  facet normal -0.25882 -0.965926 0
    outer loop
      vertex -102.275 -135.85 0
      vertex -104.775 -135.18 2.9
      vertex -104.775 -135.18 0
    endloop
  endfacet
  facet normal -0.25882 -0.965926 0
    outer loop
      vertex -102.275 -135.85 0
      vertex -102.275 -135.85 2.9
      vertex -104.775 -135.18 2.9
    endloop
  endfacet
  facet normal 0 -1 0
    outer loop
      vertex 102.275 -135.85 0
      vertex -102.275 -135.85 2.9
      vertex -102.275 -135.85 0
    endloop
  endfacet
  facet normal 0 -1 0
    outer loop
      vertex 102.275 -135.85 0
      vertex 102.275 -135.85 2.9
      vertex -102.275 -135.85 2.9
    endloop
  endfacet
  facet normal 0.25882 -0.965926 0
    outer loop
      vertex 104.775 -135.18 0
      vertex 102.275 -135.85 2.9
      vertex 102.275 -135.85 0
    endloop
  endfacet
  facet normal 0.25882 -0.965926 0
    outer loop
      vertex 104.775 -135.18 0
      vertex 104.775 -135.18 2.9
      vertex 102.275 -135.85 2.9
    endloop
  endfacet
  facet normal 0.707107 -0.707107 0
    outer loop
      vertex 106.605 -133.35 0
      vertex 104.775 -135.18 2.9
      vertex 104.775 -135.18 0
    endloop
  endfacet
  facet normal 0.707107 -0.707107 0
    outer loop
      vertex 106.605 -133.35 0
      vertex 106.605 -133.35 2.9
      vertex 104.775 -135.18 2.9
    endloop
  endfacet
  facet normal 0.965926 -0.25882 0
    outer loop
      vertex 107.275 -130.85 0
      vertex 106.605 -133.35 2.9
      vertex 106.605 -133.35 0
    endloop
  endfacet
  facet normal 0.965926 -0.25882 0
    outer loop
      vertex 107.275 -130.85 0
      vertex 107.275 -130.85 2.9
      vertex 106.605 -133.35 2.9
    endloop
  endfacet
  facet normal 1 0 0
    outer loop
      vertex 107.275 130.85 0
      vertex 107.275 -130.85 2.9
      vertex 107.275 -130.85 0
    endloop
  endfacet
  facet normal 1 0 -0
    outer loop
      vertex 107.275 130.85 0
      vertex 107.275 130.85 2.9
      vertex 107.275 -130.85 2.9
    endloop
  endfacet
  facet normal 0.965926 0.25882 0
    outer loop
      vertex 106.605 133.35 0
      vertex 107.275 130.85 2.9
      vertex 107.275 130.85 0
    endloop
  endfacet
  facet normal 0.965926 0.25882 -0
    outer loop
      vertex 106.605 133.35 0
      vertex 106.605 133.35 2.9
      vertex 107.275 130.85 2.9
    endloop
  endfacet
  facet normal 0.707107 0.707107 0
    outer loop
      vertex 104.775 135.18 0
      vertex 106.605 133.35 2.9
      vertex 106.605 133.35 0
    endloop
  endfacet
  facet normal 0.707107 0.707107 -0
    outer loop
      vertex 104.775 135.18 0
      vertex 104.775 135.18 2.9
      vertex 106.605 133.35 2.9
    endloop
  endfacet
  facet normal 0.25882 0.965926 0
    outer loop
      vertex 102.275 135.85 0
      vertex 104.775 135.18 2.9
      vertex 104.775 135.18 0
    endloop
  endfacet
  facet normal 0.25882 0.965926 -0
    outer loop
      vertex 102.275 135.85 0
      vertex 102.275 135.85 2.9
      vertex 104.775 135.18 2.9
    endloop
  endfacet
  facet normal 0 1 0
    outer loop
      vertex -102.275 135.85 0
      vertex 102.275 135.85 2.9
      vertex 102.275 135.85 0
    endloop
  endfacet
  facet normal 0 1 0
    outer loop
      vertex -102.275 135.85 0
      vertex -102.275 135.85 2.9
      vertex 102.275 135.85 2.9
    endloop
  endfacet
  facet normal -0.25882 0.965926 0
    outer loop
      vertex -104.775 135.18 0
      vertex -102.275 135.85 2.9
      vertex -102.275 135.85 0
    endloop
  endfacet
  facet normal -0.25882 0.965926 0
    outer loop
      vertex -104.775 135.18 0
      vertex -104.775 135.18 2.9
      vertex -102.275 135.85 2.9
    endloop
  endfacet
  facet normal -0.707107 0.707107 0
    outer loop
      vertex -106.605 133.35 0
      vertex -104.775 135.18 2.9
      vertex -104.775 135.18 0
    endloop
  endfacet
  facet normal -0.707107 0.707107 0
    outer loop
      vertex -106.605 133.35 0
      vertex -106.605 133.35 2.9
      vertex -104.775 135.18 2.9
    endloop
  endfacet
  facet normal -0.965926 0.25882 0
    outer loop
      vertex -107.275 130.85 0
      vertex -106.605 133.35 2.9
      vertex -106.605 133.35 0
    endloop
  endfacet
  facet normal -0.965926 0.25882 0
    outer loop
      vertex -107.275 130.85 0
      vertex -107.275 130.85 2.9
      vertex -106.605 133.35 2.9
    endloop
  endfacet
  facet normal -1 0 0
    outer loop
      vertex -107.275 -130.85 0
      vertex -107.275 130.85 2.9
      vertex -107.275 130.85 0
    endloop
  endfacet
  facet normal -1 0 0
    outer loop
      vertex -107.275 -130.85 0
      vertex -107.275 -130.85 2.9
      vertex -107.275 130.85 2.9
    endloop
  endfacet
endsolid OpenSCAD_Model
